<?xml version="1.0" standalone="no"?>
<!DOCTYPE svg PUBLIC "-//W3C//DTD SVG 20010904//EN"
 "http://www.w3.org/TR/2001/REC-SVG-20010904/DTD/svg10.dtd">
<svg version="1.0" xmlns="http://www.w3.org/2000/svg"
 width="512.000000pt" height="512.000000pt" viewBox="0 0 512.000000 512.000000"
 preserveAspectRatio="xMidYMid meet">

<g transform="translate(0.000000,512.000000) scale(0.100000,-0.100000)"
fill="#000000" stroke="none">
<path d="M380 2560 l0 -2180 2180 0 2180 0 0 2180 0 2180 -2180 0 -2180 0 0
-2180z m3125 1790 c108 -24 196 -64 274 -124 101 -78 142 -139 122 -183 -9
-19 -18 -23 -58 -23 -95 0 -178 -70 -238 -202 -70 -153 -96 -440 -48 -537 12
-24 20 -48 17 -52 -9 -15 -79 -29 -149 -29 -38 0 -121 11 -183 24 -106 22
-119 22 -200 10 -139 -21 -184 -19 -212 11 -14 14 -44 38 -67 53 -24 15 -43
30 -43 33 0 3 60 11 133 17 154 13 169 18 252 76 53 39 66 55 104 131 35 70
61 105 130 174 47 48 121 115 164 150 71 57 78 65 75 94 -2 21 -9 33 -20 35
-23 4 -136 -102 -154 -145 -12 -28 -23 -35 -80 -53 -99 -30 -105 -27 -47 33
59 59 98 136 89 173 -10 37 -51 49 -103 29 -65 -25 -123 -106 -152 -216 -11
-41 -17 -48 -51 -58 -21 -6 -67 -32 -102 -58 -79 -58 -259 -239 -318 -321 -36
-50 -46 -59 -53 -46 -16 28 1 112 33 173 42 78 128 163 285 281 72 54 139 107
149 119 19 21 19 21 -12 21 -117 0 -280 -131 -422 -339 -41 -61 -78 -110 -82
-111 -14 0 -8 68 11 129 10 34 45 106 76 162 31 55 54 103 51 106 -10 10 -78
-70 -118 -138 -38 -63 -88 -176 -155 -352 -21 -55 -43 -99 -48 -98 -19 2 -16
108 5 192 21 82 76 231 111 301 26 50 25 51 -20 29 -185 -95 -574 -526 -1125
-1249 -77 -100 -141 -180 -143 -178 -6 6 85 183 162 316 216 374 451 713 625
904 29 31 48 56 44 56 -5 0 -30 -13 -57 -28 -241 -142 -584 -605 -813 -1097
l-37 -80 -8 35 c-30 131 105 430 357 788 45 63 60 92 49 92 -26 0 -116 -49
-165 -89 -122 -102 -211 -171 -219 -171 -5 0 4 24 20 53 46 86 106 282 125
407 17 122 14 214 -12 298 -7 26 -14 50 -14 54 0 14 78 28 160 28 123 0 220
-34 299 -105 l38 -35 154 89 c222 127 501 274 628 331 167 75 303 110 526 134
97 10 371 -4 460 -24z m-204 -361 c30 -30 20 -85 -21 -121 -34 -32 -61 -35
-84 -12 -33 32 -9 111 42 138 36 20 38 20 63 -5z m580 -580 c36 -36 53 -89 52
-165 0 -60 -4 -79 -27 -119 -84 -143 -262 -249 -959 -576 -209 -98 -428 -206
-487 -240 -117 -66 -205 -136 -216 -172 -4 -12 -19 -38 -35 -57 -123 -154
-165 -498 -87 -708 30 -81 107 -155 183 -178 82 -23 186 -15 298 23 48 17 87
26 87 21 0 -22 -157 -165 -209 -191 -241 -119 -462 172 -462 607 0 131 15 239
48 334 8 24 12 46 9 49 -8 8 -123 -105 -174 -171 -57 -74 -120 -195 -128 -247
-4 -22 -11 -42 -17 -46 -15 -9 -2 232 17 301 38 139 134 312 238 431 l43 49
-40 -23 c-95 -57 -204 -141 -277 -214 -60 -60 -87 -98 -120 -164 -41 -83 -43
-90 -43 -178 0 -88 2 -95 44 -180 36 -72 61 -107 142 -189 55 -56 99 -102 99
-104 0 -8 -156 105 -220 159 -38 33 -70 56 -70 51 0 -16 155 -280 222 -379 38
-56 95 -128 126 -159 31 -32 48 -54 38 -50 -56 20 -166 108 -253 203 -105 113
-125 117 -79 18 95 -209 419 -457 672 -516 220 -51 482 14 551 136 44 77 32
137 -78 410 -82 206 -113 309 -135 457 -21 145 -12 348 16 348 13 0 90 -118
119 -182 32 -70 54 -161 71 -288 13 -97 42 -169 91 -225 43 -49 115 -95 149
-95 32 0 89 37 159 104 81 78 127 145 206 305 99 196 181 318 289 427 104 105
225 188 358 245 122 53 348 112 348 90 0 -5 -57 -62 -126 -128 -299 -279 -398
-387 -506 -547 -81 -121 -120 -202 -158 -326 -42 -135 -85 -219 -158 -311
-139 -176 -350 -326 -603 -433 -199 -83 -308 -100 -472 -71 -320 56 -632 247
-829 509 -66 88 -173 300 -208 411 -30 97 -38 257 -16 349 22 92 78 196 146
269 63 70 202 187 290 247 33 22 60 47 60 56 0 8 15 47 34 87 43 91 86 228 86
273 0 25 -8 42 -27 60 -25 23 -107 54 -144 54 -22 0 -245 -240 -341 -368 -38
-51 -85 -122 -104 -158 -72 -138 -18 49 58 201 83 165 217 347 424 575 169
186 221 236 277 260 52 23 83 20 92 -10 8 -26 -4 -105 -19 -123 -6 -8 -67 -65
-136 -127 -69 -62 -131 -119 -139 -126 -12 -11 5 -13 105 -12 137 1 194 -12
223 -49 27 -34 26 -48 -6 -114 -29 -59 -185 -226 -289 -311 -41 -33 -64 -60
-72 -84 -5 -18 -9 -34 -7 -34 2 0 34 18 72 39 190 110 434 183 803 240 342 54
462 93 635 207 69 45 201 164 183 164 -3 0 -53 -20 -110 -45 -283 -120 -507
-140 -677 -60 -174 83 -361 288 -361 395 0 35 14 20 48 -50 60 -125 200 -249
342 -301 93 -34 264 -35 365 0 165 56 317 161 496 343 106 108 120 118 153
118 23 0 43 -7 57 -21z m-1346 -387 c159 -165 346 -272 477 -272 21 0 38 -4
38 -10 0 -6 -35 -10 -85 -10 -69 0 -99 6 -166 30 -167 61 -308 181 -378 321
-51 102 -53 129 -4 69 21 -25 73 -83 118 -128z m-1412 -823 c14 -6 31 -23 38
-37 18 -32 15 -130 -4 -149 -7 -8 -69 -30 -138 -49 -135 -39 -339 -60 -339
-35 0 40 91 150 170 204 96 67 211 94 273 66z m862 -789 c38 -165 134 -384
202 -460 50 -56 58 -82 40 -135 l-14 -40 -33 70 c-32 70 -46 74 -38 9 5 -40
-1 -42 -29 -11 -69 75 -158 253 -188 375 -22 90 -17 227 10 287 l17 40 8 -30
c4 -16 15 -64 25 -105z"/>
<path d="M3227 3933 c-4 -3 -7 -17 -7 -30 0 -21 4 -24 28 -21 21 2 28 9 30 31
3 23 0 27 -21 27 -13 0 -27 -3 -30 -7z"/>
</g>
</svg>
